<svg version="1.1" xmlns="http://www.w3.org/2000/svg" viewBox="0 0 499 614" width="499" height="614">
  <!-- svg-source:excalidraw -->
  
  <defs>
    <style class="style-fonts">
      @font-face {
        font-family: "Virgil";
        src: url("https://excalidraw.com/Virgil.woff2");
      }
      @font-face {
        font-family: "Cascadia";
        src: url("https://excalidraw.com/Cascadia.woff2");
      }
      @font-face {
        font-family: "Assistant";
        src: url("https://excalidraw.com/Assistant-Regular.woff2");
      }
    </style>
    <clipPath id="6vyXiyjyauuE8vvb93PzQ">
            <rect transform="translate(0 0) rotate(0 249.5 307)" width="499" height="614">
          </rect>
        </clipPath>
  </defs>
  <rect x="0" y="0" width="499" height="614" fill="#ffffff"></rect><g clip-path="url(#6vyXiyjyauuE8vvb93PzQ)"><g stroke-linecap="round" transform="translate(176.0297396184627 -108.03938026606625) rotate(89.4482117993624 65.20158630441091 197.0069435649406)"><path d="M32 0 C54.51 -0.78, 80.95 -1.49, 98.4 0 M32 0 C51.88 1.01, 73.44 0.98, 98.4 0 M98.4 0 C119.64 -1.85, 128.88 8.87, 130.4 32 M98.4 0 C118.11 -0.3, 131.61 10.76, 130.4 32 M130.4 32 C129.44 160.96, 127.63 287.51, 130.4 362.01 M130.4 32 C129.92 118.9, 130.42 205.28, 130.4 362.01 M130.4 362.01 C132.11 384.42, 117.97 393.07, 98.4 394.01 M130.4 362.01 C129.6 382.12, 118.98 394.92, 98.4 394.01 M98.4 394.01 C76.48 394.72, 55.15 394.72, 32 394.01 M98.4 394.01 C74.74 395.25, 51.41 394.62, 32 394.01 M32 394.01 C9.18 392.88, 0.12 384.59, 0 362.01 M32 394.01 C12.47 394.51, 2.08 382.56, 0 362.01 M0 362.01 C-2.62 289.03, -0.15 214.29, 0 32 M0 362.01 C-0.52 268.42, -0.98 175.84, 0 32 M0 32 C1.06 9.01, 12.24 0.49, 32 0 M0 32 C-0.22 10.16, 10.9 -0.81, 32 0" stroke="#1e1e1e" stroke-width="2" fill="none"></path></g></g><g clip-path="url(#6vyXiyjyauuE8vvb93PzQ)"><g stroke-linecap="round"><g transform="translate(221.65234519367073 183.8347554082459) rotate(89.4482117993624 28.831759925049653 0.014021295237213849)"><path d="M0.38 -0.45 C9.85 -0.29, 48.24 0.57, 57.86 0.51 M-0.89 -1.72 C8.36 -1.89, 47.27 -1.65, 57.01 -1.35" stroke="#1e1e1e" stroke-width="2" fill="none"></path></g><g transform="translate(221.65234519367073 183.8347554082459) rotate(89.4482117993624 28.831759925049653 0.014021295237213849)"><path d="M33.38 6.81 C41.73 3.93, 52.35 1.17, 57.01 -1.35 M33.38 6.81 C38.05 4.6, 43.5 2.99, 57.01 -1.35" stroke="#1e1e1e" stroke-width="2" fill="none"></path></g><g transform="translate(221.65234519367073 183.8347554082459) rotate(89.4482117993624 28.831759925049653 0.014021295237213849)"><path d="M33.66 -10.28 C41.84 -6.61, 52.35 -2.81, 57.01 -1.35 M33.66 -10.28 C38.24 -8.55, 43.64 -6.21, 57.01 -1.35" stroke="#1e1e1e" stroke-width="2" fill="none"></path></g></g><mask></mask></g><g clip-path="url(#6vyXiyjyauuE8vvb93PzQ)"><g stroke-linecap="round" transform="translate(190.2096677505001 195.42142866697043) rotate(89.4482117993624 58.89175537172599 79.92452514734245)"><path d="M29.45 0 C49.49 -2.02, 68 0.5, 88.34 0 M29.45 0 C47.48 -0.77, 68.24 0.9, 88.34 0 M88.34 0 C107.21 -0.8, 117.25 9.27, 117.78 29.45 M88.34 0 C109.74 1.86, 120.04 9.29, 117.78 29.45 M117.78 29.45 C119.41 54.16, 118.06 79.69, 117.78 130.4 M117.78 29.45 C116.77 54.58, 116.03 80.48, 117.78 130.4 M117.78 130.4 C117.8 149.46, 108.49 159.63, 88.34 159.85 M117.78 130.4 C116.19 152.11, 109.4 158.94, 88.34 159.85 M88.34 159.85 C66.43 160.23, 43.31 159.09, 29.45 159.85 M88.34 159.85 C73.76 160.18, 60.29 159.05, 29.45 159.85 M29.45 159.85 C11.35 159.55, 1.53 151.26, 0 130.4 M29.45 159.85 C10.67 158.77, -0.51 148.7, 0 130.4 M0 130.4 C-2.93 103.41, -1.3 74.45, 0 29.45 M0 130.4 C-0.06 106.08, -0.54 81.84, 0 29.45 M0 29.45 C0.72 10.03, 9.79 1.03, 29.45 0 M0 29.45 C0.35 7.92, 10.32 -0.23, 29.45 0" stroke="#1e1e1e" stroke-width="2" fill="none"></path></g></g><g clip-path="url(#6vyXiyjyauuE8vvb93PzQ)"><g stroke-linecap="round"><g transform="translate(219.12024324618392 369.61115288030146) rotate(89.4482117993624 33.29638051309752 -1.3577148302580895)"><path d="M-0.86 -0.26 C10.46 -0.9, 55.58 -2.81, 66.87 -3.16 M0.89 -1.45 C12.17 -1.97, 55.17 -1.34, 66.06 -1.86" stroke="#1e1e1e" stroke-width="2" fill="none"></path></g><g transform="translate(219.12024324618392 369.61115288030146) rotate(89.4482117993624 33.29638051309752 -1.3577148302580895)"><path d="M42.68 6.99 C47.13 5.75, 51.75 3.89, 66.06 -1.86 M42.68 6.99 C50.41 4.25, 57.43 0.92, 66.06 -1.86" stroke="#1e1e1e" stroke-width="2" fill="none"></path></g><g transform="translate(219.12024324618392 369.61115288030146) rotate(89.4482117993624 33.29638051309752 -1.3577148302580895)"><path d="M42.46 -10.1 C47.04 -7.74, 51.71 -5.99, 66.06 -1.86 M42.46 -10.1 C50.09 -7.24, 57.19 -4.95, 66.06 -1.86" stroke="#1e1e1e" stroke-width="2" fill="none"></path></g></g><mask></mask></g><g clip-path="url(#6vyXiyjyauuE8vvb93PzQ)"><g stroke-linecap="round" transform="translate(212.7725221628648 242.79012035674506) rotate(89.4482117993624 36.10625478147489 204.01786682347938)"><path d="M18.05 0 C27.28 -1.58, 41.95 -0.59, 54.16 0 M18.05 0 C31.73 0.68, 46.76 -0.39, 54.16 0 M54.16 0 C65.02 1.86, 71.9 6.4, 72.21 18.05 M54.16 0 C64.82 -0.94, 69.92 4.37, 72.21 18.05 M72.21 18.05 C72.49 95.82, 72.34 172.74, 72.21 389.98 M72.21 18.05 C73.74 123.69, 73.2 230.51, 72.21 389.98 M72.21 389.98 C70.57 402, 66.27 408.07, 54.16 408.04 M72.21 389.98 C69.98 404.05, 65.88 408.33, 54.16 408.04 M54.16 408.04 C43.82 407.68, 31.99 406.19, 18.05 408.04 M54.16 408.04 C45.82 407.4, 36.52 408.82, 18.05 408.04 M18.05 408.04 C7.86 407.54, 0.56 400.56, 0 389.98 M18.05 408.04 C8.12 407.09, 1.85 401.2, 0 389.98 M0 389.98 C-1.39 305.62, -0.06 220.7, 0 18.05 M0 389.98 C-1.12 309.78, -1.05 228.33, 0 18.05 M0 18.05 C-0.94 6.27, 7.6 0.65, 18.05 0 M0 18.05 C-0.53 5.74, 4.15 0.36, 18.05 0" stroke="#1e1e1e" stroke-width="2" fill="none"></path></g></g><g clip-path="url(#6vyXiyjyauuE8vvb93PzQ)"><g stroke-linecap="round" transform="translate(170.33676001321567 272.9422490687041) rotate(89.4482117993624 78.17179433270775 208.22442077860273)"><path d="M32 0 C57.47 1.67, 84.1 1.63, 124.34 0 M32 0 C60.9 -0.43, 91.65 -0.7, 124.34 0 M124.34 0 C145.86 1.66, 158.24 11.65, 156.34 32 M124.34 0 C146.79 -1.26, 156.32 9.07, 156.34 32 M156.34 32 C154.18 126.45, 154.49 222.49, 156.34 384.45 M156.34 32 C157.9 147.64, 158.45 263.61, 156.34 384.45 M156.34 384.45 C156.51 406.58, 144.44 416.69, 124.34 416.45 M156.34 384.45 C154.12 405.96, 143.39 418.19, 124.34 416.45 M124.34 416.45 C92.91 417.89, 64.43 415.23, 32 416.45 M124.34 416.45 C101.91 415.27, 77.89 416.03, 32 416.45 M32 416.45 C11.89 415.93, -0.35 403.83, 0 384.45 M32 416.45 C12.38 415.65, 0.14 404.59, 0 384.45 M0 384.45 C0.62 258.18, -0.93 132.75, 0 32 M0 384.45 C-0.65 279.29, -1.57 173.4, 0 32 M0 32 C-0.5 11.17, 9.91 -1.43, 32 0 M0 32 C-0.97 8.61, 10.81 0.91, 32 0" stroke="#1e1e1e" stroke-width="2" fill="none"></path></g></g><g clip-path="url(#6vyXiyjyauuE8vvb93PzQ)"><g transform="translate(189.8965489835498 73.84249733545067) rotate(0 47.82259786829883 16.257360568335702)"><text x="0" y="22.786316572579338" font-family="Virgil, Segoe UI Emoji" font-size="26.01177690933714px" fill="#1e1e1e" text-anchor="start" style="white-space: pre;" direction="ltr" dominant-baseline="alphabetic">Scraper</text></g></g><g clip-path="url(#6vyXiyjyauuE8vvb93PzQ)"><g transform="translate(194.79974893843087 247.10416875340294) rotate(359.8915283371196 52.59865278374036 26.60208346081687)"><text x="0" y="18.64274008934046" font-family="Virgil, Segoe UI Emoji" font-size="21.28166676865349px" fill="#1e1e1e" text-anchor="start" style="white-space: pre;" direction="ltr" dominant-baseline="alphabetic">Postgres </text><text x="0" y="45.24482355015732" font-family="Virgil, Segoe UI Emoji" font-size="21.28166676865349px" fill="#1e1e1e" text-anchor="start" style="white-space: pre;" direction="ltr" dominant-baseline="alphabetic">Database</text></g></g><g clip-path="url(#6vyXiyjyauuE8vvb93PzQ)"><g transform="translate(207.381955379661 433.5507051696327) rotate(359.8915283371196 48.16384783967732 13.301041730408429)"><text x="0" y="18.64274008934046" font-family="Virgil, Segoe UI Emoji" font-size="21.28166676865349px" fill="#1e1e1e" text-anchor="start" style="white-space: pre;" direction="ltr" dominant-baseline="alphabetic">Scheduler</text></g></g><g clip-path="url(#6vyXiyjyauuE8vvb93PzQ)"><g transform="translate(209.03755884062957 504.3269975428341) rotate(359.8915283371196 51.280459761819316 13.301041730408429)"><text x="0" y="18.64274008934046" font-family="Virgil, Segoe UI Emoji" font-size="21.28166676865349px" fill="#1e1e1e" text-anchor="start" style="white-space: pre;" direction="ltr" dominant-baseline="alphabetic">Webserver</text></g></g><g clip-path="url(#6vyXiyjyauuE8vvb93PzQ)"><g stroke-linecap="round"><g transform="translate(255 468) rotate(0 0.5 19)"><path d="M-0.06 0.2 C0.04 6.44, 0.33 31.55, 0.57 37.77" stroke="#1e1e1e" stroke-width="2.5" fill="none" stroke-dasharray="8 10"></path></g><g transform="translate(255 468) rotate(0 0.5 19)"><path d="M-6.34 20.06 C-3.92 24.53, -2.63 31.13, 0.57 37.77" stroke="#1e1e1e" stroke-width="2.5" fill="none"></path></g><g transform="translate(255 468) rotate(0 0.5 19)"><path d="M6.66 19.77 C5.26 24.31, 2.73 31, 0.57 37.77" stroke="#1e1e1e" stroke-width="2.5" fill="none"></path></g></g><mask></mask></g></svg>